<svg width="588" height="634" viewBox="0 0 588 634" fill="none" xmlns="http://www.w3.org/2000/svg">
<path d="M274.201 622.202C270.916 621.444 269.905 620.77 269.736 619.338C269.484 617.653 269.821 617.484 272.853 617.484C274.791 617.484 276.307 617.905 276.307 618.327C276.307 618.832 276.897 619.169 277.571 619.169C278.329 619.169 278.834 619.927 278.834 621.275C278.834 622.454 278.75 623.297 278.666 623.297C278.497 623.213 276.56 622.707 274.201 622.202Z" fill="white"/>
<path d="M257.778 617.737C250.449 615.21 249.944 613.272 256.599 613.272C261.653 613.272 263.675 614.452 263.675 617.4C263.675 619.506 262.833 619.506 257.778 617.737Z" fill="white"/>
<path d="M237.139 608.133C232.085 605.269 226.946 602.32 225.767 601.478C224.587 600.72 223.239 599.877 222.818 599.709C222.313 599.54 213.383 594.486 203.022 588.421C187.016 579.154 182.972 576.458 177.16 570.814C170.168 564.159 165.113 557.083 162.249 550.091C158.121 539.898 157.7 538.634 156.268 529.873C155.173 523.05 155.004 513.531 155.257 464.166C155.594 402.333 155.847 398.711 160.143 387.928C160.48 387.001 161.07 385.316 161.322 384.137C162.249 380.43 165.366 373.86 170.42 364.762C176.738 353.473 190.975 338.226 202.179 330.897C206.138 328.285 214.647 323.147 221.133 319.356C227.62 315.649 233.854 312.027 235.033 311.353C248.006 303.771 262.158 295.684 262.411 295.684C262.664 295.684 265.36 294.084 268.477 292.146C280.102 285.07 297.034 277.994 302.594 277.994C303.942 277.994 305.879 277.572 306.89 277.067C308.07 276.393 317.589 275.972 335.616 275.803C365.185 275.466 371.587 274.793 378.916 271.254C387.003 267.295 390.373 264.262 399.218 252.806C406.631 243.287 408.569 241.265 414.634 237.305C418.509 234.862 423.311 232.167 425.417 231.324C427.523 230.482 430.134 229.471 431.23 228.966C432.409 228.544 437.716 227.955 443.023 227.702C454.817 227.112 461.219 228.46 471.328 233.599C479.668 237.811 491.293 249.015 494.915 256.091C499.296 264.768 501.234 271.339 501.823 279.257C503.761 308.405 485.481 333.34 458.102 339.068C442.602 342.269 427.86 338.9 413.034 328.875C409.917 326.685 406.126 323.905 404.609 322.557C400.313 318.85 392.563 314.723 386.666 312.954C382.033 311.606 377.063 311.353 353.391 310.932C325.844 310.426 318.768 310.848 308.07 313.375C302.763 314.638 286.42 322.894 277.153 328.875C274.626 330.56 268.561 334.014 257.778 340.079C256.177 341.006 250.112 344.544 244.299 347.913C238.487 351.283 232.422 354.737 230.821 355.664C224.503 359.286 214.984 366.531 211.193 370.574C203.695 378.577 196.535 391.382 193.587 401.827C190.554 412.695 190.385 416.148 190.385 474.022C190.385 537.708 190.301 536.191 196.03 548.322C201.674 560.284 217.342 573.763 236.128 582.945C240.172 584.883 243.71 586.399 243.878 586.146C244.047 585.978 242.362 583.787 240.087 581.344C236.465 577.385 229.726 565.591 228.715 561.379C228.546 560.537 227.957 558.262 227.451 556.409C226.946 554.556 226.103 551.523 225.682 549.586C225.177 547.564 224.924 529.284 225.093 503.253C225.345 464.334 225.514 459.954 226.862 455.742C234.696 432.323 246.069 419.181 269.993 405.955C278.754 401.069 283.977 395.678 290.632 384.642C297.624 373.017 306.048 364.677 315.82 359.791C324.918 355.158 328.119 354.4 339.828 354.063C347.663 353.81 351.117 354.063 355.413 355.242C371.166 359.454 384.897 370.574 391.721 384.474C393.153 387.507 394.501 390.539 394.585 391.129C394.753 391.634 395.006 392.729 395.259 393.403C397.281 399.216 397.618 401.743 397.618 409.409C397.618 414.211 397.196 419.518 396.691 421.119C395.259 425.836 390.71 437.546 390.12 438.051C389.867 438.304 388.604 439.989 387.424 441.842C380.348 452.54 368.049 461.133 355.076 464.418C349.685 465.766 336.122 466.103 331.067 465.008C323.401 463.323 315.904 459.869 307.901 454.309C296.529 446.307 291.222 443.948 285.156 443.948C279.007 443.948 274.458 445.885 270.246 450.35C265.949 454.983 263.843 459.111 262.832 465.176C261.822 471.832 261.737 541.92 262.748 551.944C263.675 560.284 267.381 569.13 272.52 575.111C274.121 577.048 275.469 578.817 275.469 579.07C275.469 579.323 273.952 579.575 272.099 579.575C269.235 579.575 268.729 579.323 268.729 577.806C268.729 576.795 268.055 575.869 267.044 575.616C265.949 575.363 265.36 574.437 265.36 573.173C265.36 571.909 264.854 571.151 264.096 571.151C263.422 571.151 262.832 570.562 262.832 569.888C262.832 569.214 262.495 568.624 261.99 568.624C261.569 568.624 261.148 567.697 261.148 566.602C261.148 565.507 260.558 564.412 259.884 564.075C259.21 563.822 258.62 563.064 258.62 562.306C258.62 561.464 257.778 561.042 256.093 561.042C253.987 561.042 253.566 561.379 253.566 563.064C253.566 564.244 252.639 566.181 251.46 567.445C250.281 568.708 249.354 570.562 249.354 571.657C249.354 573.257 248.764 573.679 246.237 574.1C244.468 574.437 242.699 574.689 242.362 574.858C241.941 574.942 243.036 576.374 244.721 578.059C247.501 580.839 247.753 581.429 247.501 585.135C247.248 588.926 247.079 589.263 244.889 589.516C242.53 589.768 235.033 587.41 234.106 586.146C233.854 585.725 232.169 585.219 230.315 584.883C228.546 584.63 226.44 583.956 225.767 583.366C223.324 581.429 221.554 581.26 219.87 582.945C218.69 584.124 217.005 584.63 214.394 584.63C212.288 584.63 210.603 584.967 210.603 585.388C210.603 585.809 212.204 586.904 214.226 587.831C218.269 589.768 221.554 592.38 221.554 593.728C221.554 594.233 222.818 594.739 224.334 594.907C226.609 595.076 227.114 595.581 227.283 597.519C227.536 599.625 227.788 599.793 231.748 599.793C234.865 599.793 235.875 600.13 235.875 601.057C235.875 601.731 236.465 602.32 237.139 602.32C237.813 602.32 238.403 602.742 238.403 603.163C238.403 603.668 239.161 604.005 240.087 604.005C241.014 604.005 241.772 604.595 241.772 605.269C241.772 606.111 242.615 606.532 244.215 606.532C245.984 606.532 246.742 607.038 247.164 608.47C247.838 611.081 247.753 613.272 247.079 613.272C246.658 613.272 242.278 610.913 237.139 608.133ZM349.6 433.67C363.921 428.869 370.576 412.779 364.005 398.879C361.226 392.814 358.024 389.528 352.549 386.664C349.011 384.811 347.326 384.558 340.418 384.558C333.089 384.558 331.994 384.811 328.961 386.748C320.537 392.224 316.662 398.879 316.073 408.398C315.314 421.034 322.475 430.975 334.69 434.26C340.839 435.861 343.451 435.776 349.6 433.67ZM455.996 307.141C462.062 304.445 466.021 300.823 468.885 295.095C470.991 291.051 471.328 289.366 471.328 283.554C471.328 275.466 469.222 270.496 463.662 265.358C457.934 260.05 454.143 258.534 446.646 258.534C434.431 258.534 426.175 264.262 421.963 275.719C419.267 283.217 420.194 290.714 424.911 298.043C427.86 302.592 430.556 304.782 436.031 307.057C442.77 309.837 449.931 309.837 455.996 307.141Z" fill="white"/>
<path d="M94.3496 521.703C86.8522 519.175 62.0012 504.854 53.4929 498.199C36.6448 485.058 22.4923 464.082 16.427 443.106C10.8671 423.983 10.9514 426.342 10.9514 315.734C10.9514 221.385 11.0356 215.572 12.6362 206.811C14.8264 193.922 16.0058 189.205 18.533 183.224C18.9542 182.297 20.1336 179.433 21.1445 176.905C23.8402 170.503 31.5061 157.277 36.1393 151.212C48.1015 135.375 62.5909 124.255 92.2436 107.828C94.0969 106.817 97.7193 104.711 100.246 103.195C102.774 101.679 107.575 98.9828 110.777 97.1295C114.062 95.2762 120.549 91.4012 125.35 88.537C130.152 85.757 134.195 83.3983 134.364 83.3983C134.532 83.3983 138.576 81.1238 143.378 78.2596C148.179 75.3954 156.435 70.5937 161.742 67.561C167.049 64.5284 176.737 58.9685 183.224 55.1777C189.71 51.3026 196.365 47.4275 197.966 46.5851C199.566 45.6585 207.148 41.2779 214.814 36.8974C222.48 32.5169 230.398 27.9679 232.504 26.7885C234.61 25.6092 238.738 23.1662 241.771 21.3129C258.872 10.867 277.32 5.05444 293.41 5.05444C309.753 5.13868 325.59 9.5192 341.175 18.3645C344.208 20.0493 347.072 21.6499 347.493 21.8183C347.998 21.9868 349.43 22.9135 350.694 23.7559C351.958 24.6825 355.496 26.7043 358.613 28.3049C361.645 29.9054 365.183 31.9272 366.363 32.7696C367.542 33.612 369.732 34.8756 371.08 35.5496C374.618 37.3186 391.298 46.9221 396.521 50.2917C398.964 51.808 401.07 53.0716 401.238 53.0716C401.66 53.0716 416.402 61.4957 429.459 69.1616C433.25 71.4361 436.788 73.2894 437.209 73.2894C437.715 73.2894 438.052 73.5421 438.052 73.9633C438.052 74.3003 438.894 74.9742 439.989 75.4797C443.948 77.333 453.973 83.1456 483.963 100.668C488.175 103.111 495.925 107.66 501.232 110.777C506.539 113.978 513.363 117.768 516.311 119.453C523.724 123.413 531.306 129.394 541.078 138.913C552.619 150.201 560.538 161.574 566.013 174.799C567.53 178.506 569.13 182.297 569.467 183.224C570.057 184.656 571.068 187.688 571.573 189.542C571.657 189.794 571.91 190.552 572.247 191.226C572.752 192.658 573.426 195.86 574.522 201.756C574.943 204.115 575.532 207.485 575.869 209.338C576.206 211.191 576.628 237.98 576.796 268.981C577.133 325.001 577.133 325.169 575.364 325.169C574.437 325.169 573.679 324.579 573.679 323.905C573.679 323.232 573.089 322.642 572.416 322.642C571.32 322.642 571.152 320.873 571.152 311.691V300.655L569.046 302.761C567.867 303.94 566.94 305.457 566.94 306.131C566.94 307.731 562.812 309.753 558.095 310.511C555.146 310.932 554.304 311.354 554.304 312.617C554.304 313.628 553.714 314.218 552.703 314.218C551.44 314.218 551.103 315.06 550.597 318.683C550.344 321.041 550.092 325.001 550.092 327.359C550.092 334.014 549.249 336.963 547.48 336.963C545.964 336.963 545.88 334.688 545.627 276.562C545.29 209.085 545.29 209.591 539.899 194.006C532.907 174.041 519.26 157.699 500.811 147.421C494.746 144.136 466.272 127.372 454.647 120.38C450.098 117.684 446.223 115.41 445.97 115.41C445.718 115.41 439.989 112.124 433.166 108.165C426.342 104.121 416.233 98.2246 410.673 94.9393C405.114 91.7381 397.532 87.2734 393.825 85.0831C390.119 82.8928 382.2 78.3438 376.135 74.9742C367.289 70.004 354.401 62.4224 344.544 56.4413C338.058 52.5662 321.8 43.2997 319.272 42.0361C310.174 37.6556 300.571 36.055 288.693 37.1501C276.562 38.3295 271.929 40.267 247.668 54.5037C233.936 62.5908 184.908 91.2327 181.118 93.3387C179.012 94.4338 172.778 98.1404 167.218 101.426C161.658 104.711 155.761 108.081 154.161 108.923C152.56 109.85 148.601 112.124 145.315 113.978C142.114 115.915 136.975 118.779 133.943 120.464C130.91 122.149 126.614 124.592 124.255 125.94C117.853 129.478 94.6024 143.041 88.6213 146.663C85.6728 148.516 83.1456 149.948 82.9771 149.948C82.1347 149.948 76.4906 154.16 71.6889 158.373C62.3382 166.46 52.7347 181.033 48.9439 192.743C43.8895 208.411 44.2264 199.061 44.2264 318.43C44.2264 402.671 44.4792 428.28 45.2373 430.891C48.1857 440.41 49.6178 444.622 50.6287 446.897C53.0717 452.457 58.6316 460.628 63.0963 465.261C70.9307 473.517 74.6373 474.444 79.8602 469.726L82.9771 466.862L83.3984 398.29C83.7353 346.903 84.1565 329.213 84.9147 327.444C85.4201 326.096 85.9256 324.158 85.9256 323.063C85.9256 320.957 88.1158 313.038 89.3794 310.68C89.8006 309.837 90.1376 308.742 90.1376 308.237C90.1376 307.815 91.0643 305.288 92.2436 302.761C93.423 300.234 94.3496 297.959 94.3496 297.622C94.3496 297.37 96.2872 293.832 98.7302 289.872C111.703 268.138 126.951 254.323 154.582 239.328C157.362 237.811 160.057 236.295 160.479 235.874C160.984 235.537 166.46 232.336 172.693 228.713C197.376 214.561 228.208 196.702 234.021 193.248C237.39 191.226 240.339 189.542 240.507 189.542C240.76 189.542 242.529 188.531 244.551 187.267C246.488 186.088 250.195 183.897 252.722 182.55C269.318 173.536 275.804 167.302 282.796 153.655C289.451 140.429 294 134.617 302.087 128.804C313.207 120.885 320.536 118.274 334.436 117.347C348.335 116.421 362.74 121.896 375.629 132.848C379.167 135.88 385.57 145.062 387.844 150.37C388.687 152.223 389.613 154.329 389.95 155.003C390.371 155.677 391.298 160.142 392.14 164.859C393.573 173.199 393.573 173.873 392.14 182.128C389.613 196.449 384.222 206.474 373.944 215.993C367.542 221.974 363.077 224.586 354.064 227.534C348.083 229.556 345.387 229.977 338.563 229.977C325.338 229.977 318.177 227.787 302.087 218.689C293.663 213.971 286.924 212.624 278.416 213.971C272.856 214.814 271.002 215.403 263.673 218.942C261.23 220.205 218.773 244.551 192.49 259.883C182.802 265.527 167.639 274.203 162.669 276.899C148.938 284.481 138.576 293.663 131.837 304.109C127.204 311.101 122.739 321.21 121.222 327.865C120.464 331.15 120.043 354.99 119.706 420.361L119.201 508.393L117.347 511.762C114.904 516.311 110.44 520.439 106.902 521.45C103.953 522.292 96.5399 522.461 94.3496 521.703ZM347.072 197.292C352.126 195.101 358.444 188.868 360.719 183.897C363.499 177.664 363.33 168.566 360.213 162.585C357.433 157.109 352.547 152.223 347.156 149.696C341.68 147.084 330.561 147.168 325.422 149.78C317.924 153.655 313.881 158.709 311.185 167.555C309.585 172.862 309.669 176.568 311.606 181.791C314.976 190.974 321.463 196.618 331.487 199.145C334.773 199.987 343.365 198.977 347.072 197.292Z" fill="white"/>
<path d="M282.206 623.466C277.152 622.792 274.54 621.865 273.53 620.518C273.024 619.844 272.687 619.928 272.35 620.602C271.929 621.697 270.076 621.529 264.347 619.844C262.578 619.338 261.146 618.58 261.146 618.159C261.146 617.738 260.809 617.653 260.304 617.906C259.883 618.159 259.461 617.822 259.461 617.148C259.461 615.547 258.029 615.379 257.608 616.811C257.355 617.401 256.85 617.485 256.007 616.98C255.334 616.558 254.66 616.221 254.407 616.137C250.026 614.789 241.687 610.83 243.287 610.746C244.719 610.746 244.551 609.061 243.034 609.061C242.36 609.061 241.771 609.482 241.771 609.988C241.771 610.661 241.35 610.662 240.507 609.903C239.833 609.314 239.244 608.303 239.244 607.713C239.244 606.281 237.559 606.113 237.559 607.629C237.474 608.134 236.969 607.713 236.379 606.618C235.705 605.439 235.116 605.017 234.947 605.607C234.442 606.955 231.662 605.86 231.662 604.428C231.662 603.838 232.167 603.08 232.757 602.911C233.347 602.574 233.262 602.406 232.336 602.406C231.578 602.322 230.819 602.743 230.651 603.248C230.146 604.68 224.501 600.974 224.501 599.289C224.501 598.447 223.996 597.688 223.322 597.436C222.48 597.183 222.311 597.436 222.648 598.447C222.985 599.205 222.901 599.794 222.48 599.794C221.469 599.794 219.026 596.846 218.942 595.498C218.942 594.824 218.605 594.993 218.183 596.004C217.762 596.93 217.425 597.267 217.425 596.762C217.341 596.172 216.583 595.582 215.656 595.33C214.73 595.077 213.971 594.403 213.971 593.729C213.971 592.887 214.14 592.887 214.645 593.645C214.982 594.235 215.74 594.403 216.33 593.982C217.088 593.561 215.993 592.634 213.129 591.118C209.928 589.433 208.917 589.18 208.917 590.107C208.917 591.623 207.569 591.792 206.727 590.36C206.39 589.77 206.474 589.686 207.064 590.023C208.664 590.949 208.243 589.264 206.558 587.748C205.547 586.821 204.705 586.653 204.199 587.158C203.694 587.664 202.599 587.832 201.756 587.495C200.409 586.906 200.324 586.821 201.672 585.895C202.936 584.884 202.936 584.8 201.588 584.294C200.746 583.957 199.987 583.704 199.819 583.789C199.735 583.789 198.64 582.862 197.376 581.767C196.112 580.588 194.849 579.829 194.428 580.082C194.091 580.335 193.754 580.082 193.754 579.661C193.754 578.397 194.428 578.482 199.145 580.082C202.683 581.346 203.441 581.346 206.895 580.166C210.602 578.987 210.77 578.987 210.349 580.503C210.012 581.851 210.349 582.02 213.297 581.767C215.151 581.598 217.004 581.093 217.509 580.588C218.773 579.324 217.594 577.976 215.656 578.482C213.887 578.987 213.213 577.471 214.982 576.881C217.004 576.207 214.645 574.354 212.455 574.943C210.602 575.365 210.433 575.28 211.36 574.185C212.287 573.09 211.95 572.753 209.338 571.574C207.569 570.9 205.8 570.31 205.379 570.31C204.873 570.31 204.705 569.721 205.042 569.047C205.295 568.373 204.536 566.772 203.441 565.593C199.65 561.465 201.251 561.802 207.064 566.267C210.181 568.625 212.96 570.9 213.213 571.321C213.971 572.501 225.26 579.577 226.27 579.577C226.776 579.577 227.703 580.082 228.208 580.756C228.713 581.346 230.735 582.104 232.673 582.357C234.526 582.609 236.379 583.115 236.632 583.536C237.39 584.547 244.13 587.074 244.635 586.484C244.888 586.232 244.719 585.558 244.214 584.884C243.456 584.041 243.54 583.789 244.382 583.789C245.056 583.789 244.719 583.031 243.456 581.767C237.811 576.46 234.273 570.31 230.735 559.864C228.798 554.22 229.05 552.788 231.156 557.253C231.999 558.938 233.178 560.538 233.768 560.707C234.442 560.959 234.695 561.718 234.442 562.392C234.189 563.065 234.442 563.571 234.947 563.571C235.453 563.571 235.874 564.329 235.874 565.256C235.874 567.867 237.39 567.278 239.328 563.992C240.591 561.886 241.687 561.044 243.203 561.044C245.056 561.044 245.225 561.297 244.972 564.161C244.635 567.446 242.613 569.215 242.613 566.182C242.613 563.908 242.36 563.992 239.496 566.604C237.474 568.541 237.39 568.794 238.822 568.625C241.687 568.288 242.445 568.541 242.866 570.226C243.119 571.405 243.793 571.742 245.056 571.405C246.994 570.9 247.331 569.889 245.983 569.047C245.393 568.71 246.236 567.362 247.92 565.761C250.7 563.15 250.785 562.981 249.268 562.055C247.331 560.875 247.162 558.517 248.931 558.517C249.605 558.517 250.195 558.18 250.195 557.674C250.195 556.495 252.975 556.579 254.154 557.758C255.418 559.022 257.018 553.378 256.85 548.239C256.429 534.508 258.113 533.581 258.872 547.144C259.377 555.315 261.146 561.886 262.831 561.886C263.336 561.886 263.673 561.381 263.758 560.875C263.758 560.286 264.179 560.707 264.6 561.886C265.19 563.318 265.19 564.076 264.6 564.245C262.915 564.835 263.673 566.267 265.358 565.846C267.296 565.34 267.548 566.098 266.032 567.615C265.274 568.373 265.274 568.625 266.285 568.625C267.97 568.625 269.907 571.742 268.475 572.248C267.885 572.585 267.97 572.753 268.812 572.753C270.581 572.837 273.361 575.87 272.097 576.46C271.592 576.713 271.676 576.797 272.266 576.712C272.856 576.544 275.467 578.06 277.994 580.082C283.049 584.041 288.693 586.821 295.264 588.506C300.065 589.854 316.829 590.107 319.104 588.927C319.862 588.506 322.221 587.664 324.327 587.074C328.707 585.811 341.343 579.661 347.493 575.786C349.852 574.354 365.015 565.424 381.189 556.074C397.448 546.639 412.105 538.046 413.79 536.951C415.559 535.856 417.16 534.929 417.413 534.929C417.581 534.929 421.54 532.739 426.005 529.959C430.554 527.263 436.956 523.557 440.158 521.703C443.443 519.85 449.256 516.396 453.215 514.037C462.481 508.562 463.661 507.888 476.55 500.475C494.493 490.113 508.561 481.099 515.132 475.876C529.874 464.167 541.078 445.213 544.532 426.259C545.627 420.446 545.88 410.843 545.88 375.04C545.964 350.863 546.217 331.067 546.554 331.067C546.891 331.067 547.143 330.056 547.227 328.792C547.817 308.574 548.491 298.634 549.333 297.876C550.092 297.202 550.176 297.539 549.923 299.308C549.586 300.993 550.007 302.172 551.608 303.688C553.883 305.963 556.073 306.637 554.304 304.531C553.461 303.52 553.461 302.93 554.135 302.256C554.809 301.582 555.567 302.172 556.831 304.447C557.842 306.131 558.768 307.479 558.853 307.479C559.021 307.479 560.369 306.89 561.801 306.131C563.823 305.121 564.413 304.362 564.16 303.183C563.907 302.256 564.16 301.582 564.75 301.582C565.255 301.582 566.434 300.656 567.277 299.476C568.119 298.297 569.383 297.37 569.972 297.37C570.646 297.37 571.152 296.444 571.152 295.264C571.152 294.085 570.815 293.158 570.309 293.158C568.793 293.158 569.467 291.052 571.573 289.536L573.679 288.02V297.707C573.679 306.216 573.848 307.395 575.195 307.732C576.543 308.069 576.543 308.153 575.195 308.237C574.185 308.322 573.679 308.996 573.679 310.512C573.679 312.281 574.016 312.618 575.28 312.281C576.375 312.028 576.796 312.197 576.459 313.039C576.291 313.629 575.448 314.303 574.69 314.471C573.679 314.724 573.848 314.892 575.195 314.977C577.891 315.145 577.47 318.346 574.521 319.526C573.426 319.863 573.511 320.031 574.606 320.031C575.364 320.115 576.206 320.958 576.543 322.053C576.796 323.064 577.049 344.545 576.964 369.817C576.964 410.927 576.796 416.655 575.364 424.574C573.511 435.104 572.163 441.253 571.152 443.528C570.815 444.455 569.973 446.561 569.383 448.161C560.453 473.012 544.532 493.651 523.472 507.551C519.428 510.162 513.278 514.122 509.74 516.144C499.968 522.04 489.27 528.19 488.933 528.19C488.764 528.19 484.3 530.801 479.161 533.918C473.938 537.119 465.683 542.005 460.797 544.785C455.911 547.65 443.022 555.147 432.155 561.549C411.853 573.427 382.284 590.36 374.029 594.909C371.501 596.341 369.058 597.773 368.553 598.11C368.132 598.531 366.026 599.71 363.92 600.89C361.814 601.985 355.243 605.607 349.178 608.977C343.197 612.262 335.615 615.969 332.33 617.148C329.128 618.412 325.674 619.675 324.748 620.012C316.745 623.129 293.663 624.982 282.206 623.466ZM551.776 309.67C551.776 308.49 551.44 307.311 550.934 307.058C550.429 306.721 550.092 307.648 550.092 309.08C550.092 310.512 550.513 311.691 550.934 311.691C551.44 311.691 551.776 310.765 551.776 309.67Z" fill="white"/>
<path d="M199.398 576.46C198.134 575.28 198.892 574.354 200.746 574.859C201.925 575.112 203.526 574.775 204.536 574.017C205.716 573.259 206.39 573.09 206.39 573.68C206.39 574.185 205.042 575.196 203.441 575.87C200.072 577.218 200.156 577.218 199.398 576.46Z" fill="white"/>
<path d="M197.292 559.359C195.438 557.59 194.849 555.989 196.112 555.989C196.87 555.989 198.892 558.095 199.987 560.033C200.914 561.633 199.313 561.212 197.292 559.359Z" fill="white"/>
<path d="M237.559 559.78C237.559 559.022 238.064 558.769 238.822 559.022C239.496 559.359 240.086 559.864 240.086 560.286C240.086 560.707 239.496 561.044 238.822 561.044C238.148 561.044 237.559 560.454 237.559 559.78Z" fill="white"/>
<path d="M251.543 552.62C250.195 551.188 249.521 550.092 250.111 550.092C251.711 550.092 255.249 552.704 255.249 553.967C255.249 555.737 254.238 555.4 251.543 552.62Z" fill="white"/>
<path d="M259.461 544.617C259.461 543.943 260.051 543.353 260.725 543.353C261.399 543.353 261.989 543.943 261.989 544.617C261.989 545.291 261.399 545.88 260.725 545.88C260.051 545.88 259.461 545.291 259.461 544.617Z" fill="white"/>
<path d="M261.483 534.508C261.483 530.38 261.567 528.527 261.736 530.464C261.904 532.402 261.904 535.856 261.736 538.046C261.567 540.236 261.483 538.72 261.483 534.508Z" fill="white"/>
<path d="M256.513 534.339C256.681 533.497 256.85 532.149 256.85 531.391C256.934 530.549 257.271 529.875 257.777 529.875C258.872 529.875 258.282 535.182 257.103 535.603C256.597 535.772 256.344 535.182 256.513 534.339Z" fill="white"/>
<path d="M368.132 454.227C368.132 453.805 368.553 453.131 369.143 452.542C370.491 451.194 371.586 451.278 370.996 452.71C370.491 454.058 368.132 455.237 368.132 454.227Z" fill="white"/>
<path d="M378.662 444.202C380.768 442.012 382.621 440.495 382.874 440.748C383.464 441.253 376.64 448.161 375.545 448.161C375.208 448.161 376.64 446.392 378.662 444.202Z" fill="white"/>
<path d="M390.034 426.006C390.034 425.585 390.456 423.563 390.961 421.373C392.14 416.655 393.741 414.465 392.899 418.677C392.309 421.625 390.119 427.27 390.034 426.006Z" fill="white"/>
<path d="M452.962 338.901C453.468 337.637 454.815 337.469 456.5 338.564C457.258 339.07 456.837 339.407 455.068 339.659C453.215 339.912 452.625 339.743 452.962 338.901Z" fill="white"/>
<path d="M557.673 304.194C556.662 302.172 558.6 300.403 561.043 301.161C563.317 301.919 563.149 303.604 560.622 304.784C558.853 305.626 558.432 305.542 557.673 304.194Z" fill="white"/>
<path d="M554.051 300.15C553.714 299.898 553.461 298.887 553.461 297.96C553.461 296.612 553.714 296.528 554.725 297.37C555.399 297.96 555.989 298.971 555.989 299.561C555.989 300.824 554.978 301.161 554.051 300.15Z" fill="white"/>
<path d="M563.654 298.381C562.391 296.023 562.475 295.601 563.991 296.191C564.665 296.528 565.255 296.275 565.255 295.77C565.255 295.264 565.676 294.843 566.097 294.843C567.277 294.843 567.108 296.781 565.76 298.634C564.665 300.15 564.581 300.15 563.654 298.381Z" fill="white"/>
<path d="M572.247 283.892C572.668 280.27 573.426 280.017 573.426 283.471C573.426 285.071 573.089 286.419 572.668 286.419C572.331 286.419 572.163 285.24 572.247 283.892Z" fill="white"/>
</svg>
